<svg id="Layer_1" data-name="Layer 1" xmlns="http://www.w3.org/2000/svg" viewBox="0 0 1352 413"><defs><style>.cls-1,.cls-51,.cls-7{fill:#8fc043;}.cls-2,.cls-26,.cls-52{fill:#e6e6e6;}.cls-15,.cls-16,.cls-17,.cls-19,.cls-2,.cls-28,.cls-29,.cls-3,.cls-30,.cls-40,.cls-45,.cls-46,.cls-5,.cls-50,.cls-51{stroke:#1a1a1a;}.cls-13,.cls-14,.cls-15,.cls-18,.cls-19,.cls-2,.cls-21,.cls-22,.cls-23,.cls-26,.cls-27,.cls-28,.cls-29,.cls-3,.cls-30,.cls-31,.cls-33,.cls-34,.cls-35,.cls-36,.cls-43,.cls-44,.cls-45,.cls-46,.cls-48,.cls-49,.cls-5,.cls-51{stroke-linecap:round;}.cls-13,.cls-15,.cls-16,.cls-17,.cls-18,.cls-19,.cls-2,.cls-21,.cls-22,.cls-23,.cls-26,.cls-29,.cls-30,.cls-31,.cls-33,.cls-34,.cls-40,.cls-43,.cls-45,.cls-46,.cls-48,.cls-5,.cls-51{stroke-linejoin:round;}.cls-10,.cls-11,.cls-12,.cls-13,.cls-14,.cls-15,.cls-16,.cls-17,.cls-18,.cls-19,.cls-2,.cls-21,.cls-22,.cls-23,.cls-24,.cls-26,.cls-27,.cls-28,.cls-29,.cls-3,.cls-30,.cls-31,.cls-32,.cls-33,.cls-34,.cls-35,.cls-36,.cls-39,.cls-40,.cls-41,.cls-42,.cls-43,.cls-44,.cls-45,.cls-46,.cls-47,.cls-48,.cls-49,.cls-5,.cls-50,.cls-51,.cls-7,.cls-8{stroke-width:2.5px;}.cls-10,.cls-12,.cls-14,.cls-18,.cls-21,.cls-22,.cls-23,.cls-24,.cls-27,.cls-3,.cls-31,.cls-35,.cls-40,.cls-43,.cls-44,.cls-5{fill:none;}.cls-12,.cls-14,.cls-24,.cls-27,.cls-28,.cls-3,.cls-36,.cls-39,.cls-41,.cls-42,.cls-44,.cls-7,.cls-8{stroke-miterlimit:10;}.cls-11,.cls-13,.cls-15,.cls-28,.cls-4,.cls-41{fill:#f2f2f2;}.cls-6{fill:#e5e5e5;}.cls-7{stroke:#333;}.cls-16,.cls-19,.cls-34,.cls-49,.cls-8,.cls-9{fill:#fff;}.cls-10,.cls-11,.cls-12,.cls-13,.cls-22,.cls-26,.cls-27,.cls-32,.cls-33,.cls-34,.cls-35,.cls-36,.cls-41,.cls-42,.cls-47,.cls-48,.cls-49,.cls-8{stroke:#000;}.cls-14,.cls-43{stroke:#fff;}.cls-17,.cls-42{fill:#8dbf43;}.cls-18,.cls-24{stroke:#f2f2f2;}.cls-20,.cls-48{fill:#8cc63f;}.cls-21{stroke:#8cc63f;}.cls-23{stroke:#e6e6e6;}.cls-24{opacity:0.6;}.cls-25{fill:#7cb259;}.cls-29{fill:#f8f8f8;}.cls-30{fill:#4d4d4d;}.cls-31{stroke:#8fc043;}.cls-32{fill:#2a2a2d;}.cls-33{fill:#8ec432;}.cls-36{fill:#f6f6f6;}.cls-37,.cls-46{fill:#1a1a1a;}.cls-38{fill:#444;}.cls-39{fill:#90c032;stroke:#92c137;}.cls-44{stroke:#f5f5f5;}.cls-45{fill:#f0f0f0;}.cls-47,.cls-50{fill:#262529;}</style></defs><path class="cls-1" d="M486.36,331.63s0-1.79-.05-2c-1.09-9.3-7.25-16.74-14.88-19.07a22.57,22.57,0,0,0-7.73-1l-.35,0a16.59,16.59,0,0,0-10.79,4.84c-2.71,2.81-4.93,6.94-7.27,10.47h0c-2.51,0-4.78-1.61-6.72-3.34a11.87,11.87,0,0,0-6.68-3.19c-7.23-.73-12.7,6.46-17.28,12l-1,1.18h72.72Z"/><path class="cls-1" d="M436.56,304.33A15.91,15.91,0,0,0,444,293.78a21.37,21.37,0,0,0-3.53-16.4,25.37,25.37,0,0,0-3-3.21c-.15-.15-.7-.54-.73-.76s.4-.62.5-.79a12.7,12.7,0,0,0,1-1.9c3.78-9-2-19.82-11.85-20.64A15,15,0,0,0,413,256.22c-3.46,5-2,11.56,1,16.48a.9.9,0,0,1-.18,1.48c-5.9,4.9-7,14.26-4.44,21.16,2.86,7.67,10.81,11.76,18.73,11.47a20.6,20.6,0,0,0,3.33-.4A16.28,16.28,0,0,0,436.56,304.33Z"/><line class="cls-2" x1="426.84" y1="331.07" x2="426.84" y2="292.24"/><polyline class="cls-3" points="426.84 279.3 426.84 292.24 419.41 285.77"/><path class="cls-4" d="M781.74,140.54a8.87,8.87,0,0,0-2.43-2.07c-.79-.45-1.66-.75-2.49-1.14h0a40.52,40.52,0,0,0-2.25-5.37c-4.31-7.26-15.35-9.71-22-4.36a15.23,15.23,0,0,0-5.34,9.32c-4.62-.65-9.51-1.27-13.81.56A13.27,13.27,0,0,0,725.6,147H784c.13-.18.08-.69.08-.9a6,6,0,0,0-.08-.95A10.18,10.18,0,0,0,781.74,140.54Z"/><path class="cls-5" d="M330.25,116.54a14.51,14.51,0,0,1,2.8-.76c1.69-.15,2.87.74,4.11,1.71a.37.37,0,0,0,.57-.15,8.75,8.75,0,0,1,1.46-2.53,6.66,6.66,0,0,1,2.88-1.35"/><path class="cls-5" d="M334.93,116.06a8.89,8.89,0,0,1,2.22,1.71.46.46,0,0,0,.7-.17,9.65,9.65,0,0,1,1.07-2.48"/><path class="cls-5" d="M361,131.83a10.68,10.68,0,0,1,2.59,0c1.47.35,2.2,1.68,2.94,3.11a.3.3,0,0,0,.53,0,9.86,9.86,0,0,1,2-2.32,5.08,5.08,0,0,1,2.84-.6"/><path class="cls-5" d="M365,132.72a9.36,9.36,0,0,1,1.34,2.52.36.36,0,0,0,.64,0,11.59,11.59,0,0,1,1.67-2.38"/><circle class="cls-1" cx="1153.91" cy="105.85" r="18.36"/><path class="cls-4" d="M1050.85,104H1100a6.39,6.39,0,0,0-6.82-5.78c.26-2.22-1.58-4.56-3.66-5.28a7.24,7.24,0,0,0-6.28.83c.06,0-.26-2.43-.29-2.62-.62-4.71-3.88-8.86-8.86-9.25a9.82,9.82,0,0,0-3.49.38,11.68,11.68,0,0,0-3.3,1.53,10.63,10.63,0,0,0-4.4,6.26,9.79,9.79,0,0,0-8,1.74c-3.25,2.38-4.66,7-4.17,10.86Z"/><path class="cls-4" d="M1252.21,134.22a20.5,20.5,0,0,0-7.47,2.68c.08-.05-2-2.88-2.16-3.14a17.81,17.81,0,0,0-2.75-2.74c-4.48-3.5-10.33-2.91-15.13-.5-.12.06-1.75.89-1.76.88s-1-1.86-1.12-2.13a20.34,20.34,0,0,0-3.31-4.38,12.54,12.54,0,0,0-10-3.22,12.72,12.72,0,0,0-9,5.58,16.66,16.66,0,0,0-1.66,3.19,36.79,36.79,0,0,0-1.9,10.59h68.9l0,.81c-.79-4-4.55-6.9-8.53-7.57A13.88,13.88,0,0,0,1252.21,134.22Z"/><path class="cls-4" d="M985.33,128a6.32,6.32,0,0,1,10.42-6.36,12.29,12.29,0,0,1,23.34,6.41Z"/><path class="cls-6" d="M713.59,333h7.94a78.3,78.3,0,0,0-7.94-.05Z"/><path class="cls-4" d="M119.43,153.54a8.83,8.83,0,0,0-2.42-2.07c-.8-.45-1.67-.75-2.5-1.14h0a41,41,0,0,0-2.26-5.37c-4.3-7.26-15.35-9.71-22-4.36a15.22,15.22,0,0,0-5.33,9.32c-4.63-.65-9.52-1.27-13.82.56A13.23,13.23,0,0,0,63.3,160h58.42a2.25,2.25,0,0,0,.07-.9,6,6,0,0,0-.08-.95A10.08,10.08,0,0,0,119.43,153.54Z"/><path class="cls-4" d="M161.59,91a4.89,4.89,0,0,1,8.07-4.92,9.5,9.5,0,0,1,18.05,5Z"/><path class="cls-4" d="M452.18,135h-38a5,5,0,0,1,5.28-4.47,4.25,4.25,0,0,1,2.84-4.09,5.61,5.61,0,0,1,4.86.64s.2-1.88.22-2c.48-3.64,3-6.85,6.85-7.15a7.49,7.49,0,0,1,2.71.29,9.3,9.3,0,0,1,2.56,1.18,8.25,8.25,0,0,1,3.4,4.85,7.56,7.56,0,0,1,6.22,1.34c2.52,1.85,3.6,5.39,3.22,8.41Z"/><path class="cls-4" d="M502.75,187.15a20.69,20.69,0,0,0-7.56,2.71,38,38,0,0,0-2.17-3.17,17.47,17.47,0,0,0-2.79-2.78c-4.52-3.53-10.43-2.94-15.28-.5-.12.06-1.77.9-1.78.89s-1-1.88-1.13-2.15a20.49,20.49,0,0,0-3.35-4.43,12.61,12.61,0,0,0-10.09-3.25,12.87,12.87,0,0,0-9.13,5.64,17,17,0,0,0-1.67,3.22,37.5,37.5,0,0,0-1.93,10.7H515.5l0,.82c-.8-4-4.59-7-8.62-7.65A14.15,14.15,0,0,0,502.75,187.15Z"/><path class="cls-4" d="M233.59,121a6.31,6.31,0,0,0-10.42-6.36A12.28,12.28,0,0,0,199.84,121Z"/><polyline class="cls-7" points="337.49 332.01 337.49 202.27 197.15 202.04 197.15 203.33 197.15 332.15"/><polyline class="cls-8" points="197.15 332.15 197.25 251.87 107.15 251.87 107.15 290.3 107.15 331.95"/><path class="cls-8" d="M195.44,240,107,247.34a2,2,0,0,0-1.77,2l0,.23a2.29,2.29,0,0,0,2.08,2.27H196c1.12,0,1.26-1.38,1.26-2.5v-7.31C197.25,240.88,196.62,239.94,195.44,240Z"/><path class="cls-9" d="M252.54,332V286.35c0-8.31,7.3-14.3,15.61-14.3h.14c8.31,0,14.92,6,14.92,14.3V332"/><path class="cls-8" d="M317.68,250.41v-34.7c0-1.45-.44-1.16-1.64-1.16h-34.3c-1.2,0-2.28-.29-2.28,1.16v34.7Z"/><path class="cls-8" d="M254,250.41V215.53c0-1.42-.83-1-2-1h-34.4c-1.17,0-2.28-.44-2.28,1v34.88Z"/><path class="cls-10" d="M257.74,307.53a1.3,1.3,0,1,0,1.3-1.31,1.3,1.3,0,0,0-1.3,1.31"/><rect class="cls-4" x="256.79" y="284.82" width="22.17" height="16.51" rx="2.12"/><line class="cls-11" x1="299.28" y1="214.52" x2="299.28" y2="250.63"/><line class="cls-11" x1="234.65" y1="214.49" x2="234.65" y2="250.63"/><path class="cls-8" d="M215.31,310.75v-37c0-1.5.54-1,1.11-1h16.79c.57,0,1-.46,1,1v37Z"/><line class="cls-10" x1="234.18" y1="292.2" x2="216.25" y2="292.2"/><polyline class="cls-12" points="337.49 332.29 337.49 202.56 197.15 202.32 197.15 203.61 197.15 332.43"/><polygon class="cls-13" points="193.18 202.75 341.04 202.75 324.12 146.64 209.21 146.64 193.18 202.75"/><path class="cls-14" d="M306.2,283.16a6,6,0,0,1,9.22,0"/><path class="cls-14" d="M302.58,280.41a10.7,10.7,0,0,1,16.49.08"/><path class="cls-14" d="M298.83,278.14a15,15,0,0,1,23.56.13"/><polygon class="cls-15" points="704.75 331.99 530.43 332.35 531.18 274.63 545.39 264.03 545.39 97.68 704.75 97.68 704.75 331.99"/><polyline class="cls-16" points="563.17 225.17 563.17 117.4 686.97 117.4 686.97 225.17"/><rect class="cls-17" x="509.33" y="215.56" width="123.96" height="68.32"/><line class="cls-18" x1="563.17" y1="200.36" x2="686.97" y2="200.36"/><line class="cls-18" x1="563.17" y1="184.17" x2="686.97" y2="184.17"/><line class="cls-18" x1="563.17" y1="167.61" x2="686.97" y2="167.61"/><line class="cls-18" x1="563.17" y1="150.83" x2="686.97" y2="150.83"/><line class="cls-18" x1="563.17" y1="134.25" x2="686.97" y2="134.25"/><rect class="cls-9" x="524.12" y="231.05" width="109.17" height="36.63"/><rect class="cls-19" x="610.17" y="168.13" width="135.23" height="164.17"/><path class="cls-4" d="M650.26,212.91V192.47c0-.55-.64-1-1.44-1-4.06,0-15.54,0-19.6,0-.8,0-1.44.46-1.44,1v20.44c0,.56.66,1,1.47,1h19.54C649.6,213.91,650.26,213.47,650.26,212.91Z"/><path class="cls-4" d="M688.68,212.91V192.47c0-.55-.65-1-1.45-1-4.06,0-15.53,0-19.59,0-.8,0-1.44.46-1.44,1v20.44c0,.56.66,1,1.46,1h19.55C688,213.91,688.68,213.47,688.68,212.91Z"/><path class="cls-4" d="M727.09,212.91V192.47c0-.55-.64-1-1.44-1-4.06,0-15.53,0-19.59,0-.8,0-1.44.46-1.44,1v20.44c0,.56.65,1,1.46,1h19.55C726.44,213.91,727.09,213.47,727.09,212.91Z"/><path class="cls-4" d="M650.26,259.76V239.32c0-.55-.64-1-1.44-1-4.06,0-15.54,0-19.6,0-.8,0-1.44.45-1.44,1v20.44c0,.56.66,1,1.47,1h19.54C649.6,260.77,650.26,260.32,650.26,259.76Z"/><path class="cls-4" d="M688.68,259.76V239.32c0-.55-.65-1-1.45-1-4.06,0-15.53,0-19.59,0-.8,0-1.44.45-1.44,1v20.44c0,.56.66,1,1.46,1h19.55C688,260.77,688.68,260.32,688.68,259.76Z"/><path class="cls-4" d="M727.09,259.76V239.32c0-.55-.64-1-1.44-1-4.06,0-15.53,0-19.59,0-.8,0-1.44.45-1.44,1v20.44c0,.56.65,1,1.46,1h19.55C726.44,260.77,727.09,260.32,727.09,259.76Z"/><path class="cls-20" d="M675.51,284.41h4.56a11.81,11.81,0,0,1,11.81,11.81V332.3a0,0,0,0,1,0,0H663.7a0,0,0,0,1,0,0V296.22A11.81,11.81,0,0,1,675.51,284.41Z"/><path class="cls-21" d="M476.32,273.88a10,10,0,0,1,11.83.11"/><path class="cls-21" d="M473.07,269.89a13.93,13.93,0,0,1,18.12.06"/><path class="cls-21" d="M470.65,265c3.1-2.74,7.18-3.79,11.65-3.79a17.56,17.56,0,0,1,11.93,4.66"/><path class="cls-22" d="M484.47,297.11H494a4.08,4.08,0,0,1,4.08,4.08v12.92a4.08,4.08,0,0,0,4.08,4.08h0a4.08,4.08,0,0,0,4.08-4.08v-5.44a4.08,4.08,0,0,1,4.08-4.08h9.36"/><line class="cls-5" x1="530.76" y1="332.34" x2="538.87" y2="332.34"/><line class="cls-23" x1="648.07" y1="292.81" x2="630.24" y2="292.81"/><line class="cls-23" x1="647.78" y1="307.45" x2="629.96" y2="307.45"/><line class="cls-24" x1="113.18" y1="269.63" x2="191.18" y2="269.63"/><line class="cls-24" x1="113.18" y1="281.63" x2="192.18" y2="281.63"/><line class="cls-24" x1="113.18" y1="293.63" x2="191.18" y2="293.63"/><line class="cls-24" x1="113.18" y1="305.63" x2="192.18" y2="305.63"/><line class="cls-24" x1="113.18" y1="318.63" x2="191.18" y2="318.63"/><path class="cls-12" d="M192.18,331.63V260.77a2.52,2.52,0,0,0-2.49-2.55h-75a2.52,2.52,0,0,0-2.49,2.55v66.7"/><path class="cls-1" d="M163.17,332.09a19.58,19.58,0,0,0,0-2c-1.09-9.31-7.25-16.75-14.88-19.07a22.54,22.54,0,0,0-7.73-1l-.35,0a16.59,16.59,0,0,0-10.79,4.84c-2.71,2.81-4.93,6.94-7.27,10.47h0c-2.51,0-4.78-1.62-6.72-3.34a11.87,11.87,0,0,0-6.68-3.19c-7.23-.73-12.7,6.46-17.28,12l-1,1.18h72.72Z"/><path class="cls-25" d="M106.84,328.17c-3.16-4.7-7.62-9.21-12.49-11.14C84.08,313,74,321.3,68.42,332.09H109A27.91,27.91,0,0,0,106.84,328.17Z"/><path class="cls-1" d="M114.9,309.38a13.13,13.13,0,0,0,6.14-8.71,17.66,17.66,0,0,0-2.91-13.55,20.78,20.78,0,0,0-2.49-2.65c-.13-.13-.58-.45-.6-.63s.33-.51.41-.65a10.28,10.28,0,0,0,.82-1.58c3.12-7.4-1.62-16.37-9.79-17.05a12.35,12.35,0,0,0-11,5.08c-2.86,4.17-1.7,9.55.79,13.61a1,1,0,0,1,.23.79,1,1,0,0,1-.37.44c-4.88,4-5.79,11.78-3.67,17.48,2.36,6.33,8.93,9.71,15.47,9.47a15.77,15.77,0,0,0,2.75-.33A13.41,13.41,0,0,0,114.9,309.38Z"/><line class="cls-26" x1="106.88" y1="331.48" x2="106.88" y2="299.39"/><polyline class="cls-27" points="106.88 288.71 106.88 299.39 100.74 294.05"/><line class="cls-28" x1="483.92" y1="287.78" x2="483.92" y2="284.08"/><line class="cls-28" x1="480.43" y1="291.98" x2="480.43" y2="288.28"/><line class="cls-28" x1="487.27" y1="291.98" x2="487.27" y2="288.28"/><polyline class="cls-29" points="475.55 331.19 475.55 288.99 489.22 288.07 489.22 331.19"/><ellipse class="cls-29" cx="482.39" cy="288.36" rx="6.84" ry="8.3"/><ellipse class="cls-30" cx="482.39" cy="288.36" rx="5.11" ry="6.21"/><path class="cls-31" d="M478.57,293.93a7.94,7.94,0,0,1-2.15-5.57,8.26,8.26,0,0,1,1.28-4.48"/><path class="cls-31" d="M487.11,283.94a8.25,8.25,0,0,1,1.24,4.42,7.89,7.89,0,0,1-2.12,5.54"/><path class="cls-1" d="M708.49,331.63s0-2.05,0-2.25c1.25-10.63,8.29-19.12,17-21.79a26.2,26.2,0,0,1,8.83-1.1l.4,0a18.89,18.89,0,0,1,12.32,5.53c3.09,3.2,5.64,7.91,8.31,11.95h0c2.86,0,5.45-1.84,7.67-3.81a13.63,13.63,0,0,1,7.63-3.65c8.26-.84,14.51,7.39,19.74,13.74l1.11,1.35H708.49Z"/><path class="cls-1" d="M761.38,309.61a13.19,13.19,0,0,1-6.15-8.72,17.72,17.72,0,0,1,2.92-13.55,20.78,20.78,0,0,1,2.49-2.65c.12-.12.58-.45.6-.62s-.33-.52-.41-.66a10.66,10.66,0,0,1-.82-1.57c-3.12-7.41,1.62-16.38,9.79-17.06a12.38,12.38,0,0,1,11,5.08c2.86,4.17,1.69,9.55-.79,13.61a1,1,0,0,0-.23.79,1,1,0,0,0,.37.44c4.88,4.05,5.79,11.78,3.67,17.48-2.36,6.33-8.93,9.71-15.47,9.47a17,17,0,0,1-2.76-.32A13.69,13.69,0,0,1,761.38,309.61Z"/><line class="cls-2" x1="769.4" y1="331.7" x2="769.4" y2="299.62"/><polyline class="cls-3" points="769.4 288.93 769.4 299.62 775.54 294.27"/><path class="cls-12" d="M311.32,312.76v7.46a6.15,6.15,0,0,0,6.16,6.15h0a6.15,6.15,0,0,0,6.16-6.15V313a4.16,4.16,0,0,1,4.16-4.16h22.51"/><path class="cls-9" d="M353.41,295l2.22-5.9a42.51,42.51,0,0,1,4.56-8.81,4.6,4.6,0,0,1,1.19-1.18,4,4,0,0,1,2.05-.68c5-.25,10.1-.48,15.14-.45s10,.44,15,.81l.43,0a4.19,4.19,0,0,1,2.34,1,5.15,5.15,0,0,1,1.37,1.82c2,4.41,3.83,8.91,5.66,13.4l-24.66-.76h-.24Z"/><rect class="cls-32" x="348.29" y="314.34" width="8.99" height="16.59" rx="3.07" transform="translate(705.57 645.27) rotate(180)"/><rect class="cls-32" x="399.06" y="314.34" width="8.99" height="16.59" rx="3.07" transform="translate(807.12 645.27) rotate(180)"/><path class="cls-33" d="M348.49,319.25l-.74-9.64a13.51,13.51,0,0,1,1.77-7.79l3.83-6.61,25.17-.7,24.78.7,3.72,6.53a13.53,13.53,0,0,1,1.73,7.95l-.89,9.56-11.88.52q-17.46.75-34.92,0Z"/><path class="cls-9" d="M359.06,310.79a4.75,4.75,0,1,1,.26-9.5,4.8,4.8,0,0,1,4.5,4.86,4.75,4.75,0,0,1-4.76,4.64"/><path class="cls-9" d="M397.39,301.28a4.76,4.76,0,1,1-.26,9.51,4.81,4.81,0,0,1-4.5-4.87,4.75,4.75,0,0,1,4.76-4.64"/><path class="cls-34" d="M348.9,319.09l12.21.52q17.47.75,34.95,0l11.55-.51a.26.26,0,0,1,.26.31l-.18,3a1.77,1.77,0,0,1-.79,1.4.28.28,0,0,1-.13.06l-15.36.61c-3.89.09-22.37,0-26.26-.17L350,323.55l-.12-.06a2,2,0,0,1-.93-1.5l-.29-2.57A.26.26,0,0,1,348.9,319.09Z"/><path class="cls-35" d="M348.36,294.69h2a1.35,1.35,0,0,1,1.35,1.35v.46a1.35,1.35,0,0,1-1.35,1.35h-2.37a.92.92,0,0,1-.92-.92V296A1.35,1.35,0,0,1,348.36,294.69Z" transform="translate(698.66 592.54) rotate(180)"/><path class="cls-35" d="M406.27,294.41h2.12a1.46,1.46,0,0,1,1.46,1.46v.89a1.07,1.07,0,0,1-1.07,1.07h-2.51a1.46,1.46,0,0,1-1.46-1.46v-.5a1.46,1.46,0,0,1,1.46-1.46Z" transform="translate(814.66 592.26) rotate(180)"/><line class="cls-35" x1="361.75" y1="277.91" x2="360.45" y2="279.94"/><line class="cls-35" x1="395.4" y1="278.22" x2="396.7" y2="280.25"/><path class="cls-35" d="M394.36,293.66a5.72,5.72,0,1,0-11.44,0"/><path class="cls-35" d="M353.38,295.21l2.22-5.89a41.55,41.55,0,0,1,4.56-8.81,4.28,4.28,0,0,1,1.18-1.18,4.05,4.05,0,0,1,2.05-.69c5-.25,10.1-.47,15.14-.45s10,.45,15,.82l.44,0a4.09,4.09,0,0,1,2.33,1,5.15,5.15,0,0,1,1.37,1.82c2,4.41,3.83,8.9,5.66,13.39l-24.66-.75h-.24Z"/><path class="cls-36" d="M322.86,300.56c0,8-5.34,14.71-11.92,14.71s-11.92-7-11.92-14.71c0-8.16,5.34-12.48,11.92-12.48S322.86,292.24,322.86,300.56Z"/><path class="cls-37" d="M311,313.8a4.74,4.74,0,0,0,3.42-1.56c2.3-2.69,3.42-6.7,3.76-10.17a16.55,16.55,0,0,0-.16-4.43c-.87-5.35-3.8-7-7-7h-.08c-3.22,0-6.14,1.65-7,7a17,17,0,0,0-.16,4.43,24.08,24.08,0,0,0,1.36,5.55,14,14,0,0,0,2.48,4.62A4.72,4.72,0,0,0,311,313.8Z"/><circle class="cls-38" cx="311.02" cy="309.37" r="4.46"/><rect class="cls-39" x="310.09" y="293.31" width="1.86" height="0.78" rx="0.39"/><path class="cls-9" d="M519.84,294.76l2.22-5.89a41.09,41.09,0,0,1,4.56-8.81,4.28,4.28,0,0,1,1.18-1.18,4.05,4.05,0,0,1,2.05-.69c5-.25,10.1-.47,15.14-.45s10,.45,15,.82l.44,0a4.09,4.09,0,0,1,2.33,1,5.15,5.15,0,0,1,1.37,1.82c2,4.41,3.83,8.9,5.66,13.39L545.13,294h-.24Z"/><rect class="cls-32" x="514.71" y="314.12" width="8.99" height="16.59" rx="3.07" transform="translate(1038.41 644.82) rotate(180)"/><rect class="cls-32" x="565.49" y="314.12" width="8.99" height="16.59" rx="3.07" transform="translate(1139.97 644.82) rotate(180)"/><path class="cls-33" d="M514.91,319l-.74-9.65A13.41,13.41,0,0,1,516,301.6l3.82-6.61,25.17-.71,24.78.71,3.73,6.52a13.54,13.54,0,0,1,1.72,7.95l-.88,9.57-11.89.52q-17.45.75-34.92,0Z"/><path class="cls-9" d="M525.48,310.57a4.76,4.76,0,1,1,.27-9.51,4.8,4.8,0,0,1,4.49,4.87,4.75,4.75,0,0,1-4.76,4.64"/><path class="cls-9" d="M563.82,301.06a4.75,4.75,0,1,1-.27,9.5,4.8,4.8,0,0,1-4.49-4.86,4.74,4.74,0,0,1,4.76-4.64"/><path class="cls-34" d="M515.33,318.87l12.21.52q17.46.74,34.94,0l11.55-.5a.25.25,0,0,1,.26.3l-.17,3.05a1.81,1.81,0,0,1-.8,1.4l-.12.06-15.37.6c-3.89.1-22.37,0-26.26-.16l-15.15-.79-.13-.06a2,2,0,0,1-.92-1.5l-.3-2.58A.26.26,0,0,1,515.33,318.87Z"/><path class="cls-35" d="M514.78,294.47h2a1.35,1.35,0,0,1,1.35,1.35v.46a1.35,1.35,0,0,1-1.35,1.35h-2.37a.92.92,0,0,1-.92-.92v-.88a1.35,1.35,0,0,1,1.35-1.35Z" transform="translate(1031.51 592.09) rotate(180)"/><path class="cls-35" d="M572.69,294.19h2.12a1.46,1.46,0,0,1,1.46,1.46v.89a1.07,1.07,0,0,1-1.07,1.07h-2.51a1.46,1.46,0,0,1-1.46-1.46v-.5A1.46,1.46,0,0,1,572.69,294.19Z" transform="translate(1147.51 591.81) rotate(180)"/><line class="cls-35" x1="528.18" y1="277.69" x2="526.87" y2="279.72"/><line class="cls-35" x1="561.82" y1="277.99" x2="563.13" y2="280.03"/><path class="cls-35" d="M560.78,293.44a5.72,5.72,0,0,0-11.44,0"/><path class="cls-35" d="M519.8,295,522,289.1a42.34,42.34,0,0,1,4.56-8.82,4.45,4.45,0,0,1,1.19-1.18,4.07,4.07,0,0,1,2.05-.68c5-.25,10.09-.48,15.13-.45s10,.45,15,.81l.43,0a4,4,0,0,1,2.33,1,5.2,5.2,0,0,1,1.38,1.82c2,4.4,3.82,8.9,5.66,13.39l-24.67-.75h-.24Z"/><line class="cls-27" x1="535.36" y1="306.53" x2="553.36" y2="306.53"/><polyline class="cls-40" points="563.16 216.03 563.16 117.78 686.96 117.78 686.96 168.03"/><rect class="cls-41" x="1034.04" y="201.93" width="217.9" height="130.59"/><polygon class="cls-42" points="799.82 332.52 1034.67 332.52 1034.67 201.44 914.45 132.39 799.82 201.85 799.82 332.52"/><rect class="cls-9" x="849.7" y="206.88" width="133.84" height="123.74"/><line class="cls-43" x1="1180.59" y1="201.87" x2="1180.59" y2="331.46"/><line class="cls-43" x1="1107.19" y1="201.87" x2="1107.19" y2="331.46"/><line class="cls-43" x1="1251.85" y1="227.41" x2="1037.64" y2="227.41"/><line class="cls-44" x1="975.33" y1="217.17" x2="856.8" y2="217.17"/><line class="cls-44" x1="975.04" y1="227.54" x2="856.52" y2="227.54"/><line class="cls-44" x1="975.04" y1="237.64" x2="856.52" y2="237.64"/><line class="cls-44" x1="975.04" y1="247.74" x2="856.52" y2="247.74"/><rect class="cls-12" x="1034.67" y="201.83" width="217.17" height="130.59"/><path class="cls-43" d="M817.2,255.13a13.29,13.29,0,0,1,15.71.14"/><path class="cls-43" d="M812.88,249.83a18.5,18.5,0,0,1,24.07.08"/><path class="cls-43" d="M809.67,243.31c4.12-3.64,9.54-5,15.48-5A23.29,23.29,0,0,1,841,244.46"/><polyline class="cls-45" points="833.74 330.76 833.74 282.46 816.66 282.46 816.66 330.76"/><path class="cls-45" d="M834.52,282.15a10.16,10.16,0,0,1-9.16,6.54c-4.11,0-7.66-2.79-9.25-6.8v-2.48a14.17,14.17,0,0,1-.91-5.06c0-6.78,4.55-12.27,10.16-12.27s10.17,5.49,10.17,12.27a14.25,14.25,0,0,1-1,5.33Z"/><ellipse class="cls-46" cx="825.36" cy="272.93" rx="8.7" ry="10.85"/><path class="cls-21" d="M821.09,280.86A10.48,10.48,0,0,1,817.8,273a11.27,11.27,0,0,1,1.31-5.36"/><path class="cls-21" d="M829.52,280.87a10.5,10.5,0,0,0,3.29-7.89,11.38,11.38,0,0,0-1.29-5.33"/><path class="cls-43" d="M1000.73,254.77a13.28,13.28,0,0,1,15.7.14"/><path class="cls-43" d="M996.41,249.47a18.5,18.5,0,0,1,24.07.08"/><path class="cls-43" d="M993.19,243c4.12-3.64,9.54-5,15.48-5a23.33,23.33,0,0,1,15.85,6.19"/><polyline class="cls-45" points="1017.26 330.4 1017.26 282.1 1000.19 282.1 1000.19 330.4"/><path class="cls-45" d="M1018,281.79a10.14,10.14,0,0,1-9.15,6.54c-4.12,0-7.66-2.79-9.26-6.8v-2.48a14.39,14.39,0,0,1-.91-5.06c0-6.78,4.56-12.27,10.17-12.27s10.16,5.49,10.16,12.27a14.25,14.25,0,0,1-1,5.33Z"/><ellipse class="cls-46" cx="1008.89" cy="272.57" rx="8.7" ry="10.85"/><path class="cls-21" d="M1004.61,280.5a10.48,10.48,0,0,1-3.28-7.89,11.39,11.39,0,0,1,1.3-5.36"/><path class="cls-21" d="M1013.05,280.51a10.53,10.53,0,0,0,3.28-7.89,11.26,11.26,0,0,0-1.29-5.33"/><path class="cls-47" d="M1067.19,308.28V327q0,3.3-3.29,3.3H1058c-2.2,0-3.29-1.1-3.29-3.3V297.43"/><path class="cls-47" d="M1113.13,308.28V327q0,3.3,3.3,3.3h5.93c2.2,0,3.29-1.1,3.29-3.3V297.43"/><path class="cls-48" d="M1127.1,265.07l-1.84-14.85s-.93-8.45-1.87-9.51a4.43,4.43,0,0,0-2.64-1.47h-60.58a4.43,4.43,0,0,0-2.64,1.47c-.94,1.06-1.87,9.51-1.87,9.51l-1.84,14.85-1.93,15.55-.88,7.09V312.9a4.2,4.2,0,0,0,4.09,4.33l70.74-.25a4.22,4.22,0,0,0,4.07-4.35V287.71l-.87-7.07Z"/><path class="cls-9" d="M1064.46,296.84a5.86,5.86,0,1,1,5.06-5A5.87,5.87,0,0,1,1064.46,296.84Z"/><path class="cls-9" d="M1118.43,296.84a5.87,5.87,0,1,1,5.06-5A5.86,5.86,0,0,1,1118.43,296.84Z"/><path class="cls-22" d="M1051.05,307.2a4.21,4.21,0,0,0,4.09,4.34l70.74-.25a4.23,4.23,0,0,0,4.07-4.35"/><path class="cls-49" d="M1132,270.15h0a3.39,3.39,0,0,1,3.39,3.39v4a2.66,2.66,0,0,1-2.66,2.66H1132a3.39,3.39,0,0,1-3.39-3.39v-3.26A3.39,3.39,0,0,1,1132,270.15Z" transform="translate(2263.9 550.34) rotate(-180)"/><path class="cls-22" d="M1126.9,265.64l-1.84-14.85s-.93-8.45-1.87-9.52a4.39,4.39,0,0,0-2.64-1.46H1060a4.39,4.39,0,0,0-2.64,1.46c-.95,1.07-1.88,9.52-1.88,9.52l-1.84,14.85-1.93,15.55-.88,7.08v25.19a4.22,4.22,0,0,0,4.09,4.34l70.74-.25a4.22,4.22,0,0,0,4.07-4.35V288.27l-.87-7.07Z"/><path class="cls-49" d="M1048.51,270.15h.73a2.66,2.66,0,0,1,2.66,2.66v4a3.39,3.39,0,0,1-3.39,3.39h0a3.39,3.39,0,0,1-3.39-3.39v-3.26a3.39,3.39,0,0,1,3.39-3.39Z"/><path class="cls-9" d="M1064,251.64h52a3,3,0,0,1,3,2.62l2.69,18.5a3.07,3.07,0,0,1-3,3.51H1061.3a3.06,3.06,0,0,1-3-3.51l2.69-18.5A3,3,0,0,1,1064,251.64Z"/><path class="cls-35" d="M1077.55,302.46l-1.14-.92a5.31,5.31,0,0,1-1.9-4.12v-3.63a2.69,2.69,0,0,1,1.19-2.26h0a11.51,11.51,0,0,1,6.21-1.83l17.09.05a11.47,11.47,0,0,1,6.2,1.85h0a2.65,2.65,0,0,1,1.2,2.26v3.9a4.77,4.77,0,0,1-1.7,3.68l-1.29,1a5.12,5.12,0,0,1-3.24,1.17l-19.49,0A5,5,0,0,1,1077.55,302.46Z"/><path class="cls-1" d="M1228.8,332.45a16.87,16.87,0,0,1,0-1.84c1-8.73,6.8-15.7,14-17.88a21.2,21.2,0,0,1,7.24-.91l.33,0a15.56,15.56,0,0,1,10.11,4.54c2.54,2.63,4.63,6.5,6.82,9.81h0c2.36,0,4.48-1.51,6.3-3.13a11.12,11.12,0,0,1,6.26-3c6.78-.69,11.91,6.06,16.2,11.27l.91,1.11H1228.8Z"/><path class="cls-1" d="M1250.24,306.12a14.89,14.89,0,0,1-6.94-9.85,19.94,19.94,0,0,1,3.3-15.3,22.71,22.71,0,0,1,2.81-3c.14-.14.66-.51.68-.71s-.37-.59-.47-.74a12,12,0,0,1-.92-1.78c-3.52-8.37,1.83-18.49,11.06-19.26a13.94,13.94,0,0,1,12.42,5.74c3.23,4.71,1.91,10.78-.9,15.37a.85.85,0,0,0,.17,1.39c5.51,4.57,6.54,13.3,4.14,19.74-2.66,7.15-10.08,11-17.47,10.7a19,19,0,0,1-3.11-.37A15.27,15.27,0,0,1,1250.24,306.12Z"/><line class="cls-2" x1="1259.31" y1="331.07" x2="1259.31" y2="294.84"/><polyline class="cls-3" points="1259.31 282.76 1259.31 294.83 1266.24 288.8"/><line class="cls-35" x1="59.68" y1="332.49" x2="1306.45" y2="332.49"/><path class="cls-50" d="M1172.88,312.09v15.73c0,1.84-1,2.76-2.84,2.76h-5.12c-1.89,0-2.84-.92-2.84-2.76V303"/><path class="cls-50" d="M1209.11,312.09v15.73c0,1.84,1,2.76,2.84,2.76h5.12c1.89,0,2.84-.92,2.84-2.76V303"/><path class="cls-51" d="M1219.43,227.11a6.47,6.47,0,0,1,6.34,6.59v42.64l-12.26-3.72-.55-12.81c-.52-5.36,1.31-9.22-4-9.22h-35.67c-5.31,0-3.49,4.41-4,9.78l-.5,12.25-12.29,3.72,0-42.64a6.47,6.47,0,0,1,6.32-6.59Z"/><rect class="cls-51" x="1156.31" y="244.48" width="69.47" height="75.1" rx="8.12"/><rect class="cls-19" x="1154.43" y="313.01" width="73.22" height="6.57" rx="1.45"/><rect class="cls-9" x="1162.41" y="250.73" width="57.26" height="33.18" rx="3.73"/><path class="cls-9" d="M1218.57,297a5.37,5.37,0,1,0-5.36,5.36,5.38,5.38,0,0,0,5.36-5.36"/><path class="cls-9" d="M1168.56,302.31a5.37,5.37,0,1,0-.3-10.74,5.37,5.37,0,0,0,.3,10.74"/><polyline class="cls-5" points="1155.84 260.47 1148.1 260.47 1148.1 278.48 1155.84 278.48"/><rect class="cls-52" x="1143.4" y="263.62" width="8.92" height="11.73" rx="1.34" transform="translate(2295.72 538.98) rotate(-180)"/><polyline class="cls-5" points="1225.98 260.93 1233.72 260.93 1233.72 278.94 1225.98 278.94"/><rect class="cls-52" x="1229.5" y="264.09" width="8.92" height="11.73" rx="1.34"/></svg>