<svg id="Layer_1" data-name="Layer 1" xmlns="http://www.w3.org/2000/svg" viewBox="0 0 956 413"><defs><style>.cls-1,.cls-10,.cls-11,.cls-12,.cls-3{fill:none;}.cls-1,.cls-10,.cls-11,.cls-12,.cls-2,.cls-3,.cls-4,.cls-7,.cls-8,.cls-9{stroke:#1a1a1a;}.cls-1,.cls-10,.cls-11,.cls-12,.cls-2,.cls-3,.cls-4{stroke-linecap:round;}.cls-1,.cls-10,.cls-12,.cls-2,.cls-3,.cls-4{stroke-linejoin:round;}.cls-1,.cls-10,.cls-11,.cls-2,.cls-3,.cls-4,.cls-7,.cls-8,.cls-9{stroke-width:3px;}.cls-1{stroke-dasharray:10 10;}.cls-2,.cls-6{fill:#8fbf43;}.cls-4{fill:#edf6fe;}.cls-5{fill:#8fc043;}.cls-7{fill:#8cbf47;}.cls-11,.cls-7,.cls-8{stroke-miterlimit:10;}.cls-8{fill:#fff;}.cls-13,.cls-9{fill:#f2f2f2;}.cls-10,.cls-9{fill-rule:evenodd;}.cls-12{stroke-width:2.5px;}</style></defs><path class="cls-1" d="M329.59,148A165.71,165.71,0,0,1,428.41,45"/><path class="cls-1" d="M436.75,359.32A165.77,165.77,0,0,1,327.41,254.58"/><path class="cls-1" d="M643.55,249A165.74,165.74,0,0,1,538.79,356.42"/><path class="cls-1" d="M535.41,45.58A165.87,165.87,0,0,1,639.34,140.2"/><polygon class="cls-2" points="598.72 122.5 598.48 126.1 599.62 130.16 598.53 132.37 596.67 132.42 598.31 135.11 601.62 139.37 601.94 145.11 598.97 144.35 597.06 144.66 596.6 151.18 596.95 156.87 596.17 159.61 596.47 164.53 594.88 167.29 593.88 170.81 595.52 175.7 598.32 182.17 598.11 186.83 597.96 196.36 599.15 205.01 601.39 212.06 605 219.91 609.66 225.01 615.13 226.28 618.3 221.28 620.46 218.01 623.41 216.68 624.12 207.9 624.21 199.76 623.85 191.41 622.81 181.59 620.6 170.06 617.86 160.22 614.76 151.48 610.9 142.79 606.94 135.07 602.12 127.34 598.72 122.5"/><polygon class="cls-3" points="598.72 122.5 598.48 126.1 599.62 130.16 598.53 132.37 596.67 132.42 598.31 135.11 601.62 139.37 601.94 145.11 598.97 144.35 597.06 144.66 596.6 151.18 596.95 156.87 596.17 159.61 596.47 164.53 594.88 167.29 593.88 170.81 595.52 175.7 598.32 182.17 598.11 186.83 597.96 196.36 599.15 205.01 601.39 212.06 605 219.91 609.66 225.01 615.13 226.28 618.3 221.28 620.46 218.01 623.41 216.68 624.12 207.9 624.21 199.76 623.85 191.41 622.81 181.59 620.6 170.06 617.86 160.22 614.76 151.48 610.9 142.79 606.94 135.07 602.12 127.34 598.72 122.5"/><polyline class="cls-4" points="486.54 339.56 479.34 339.51 472.31 339.11 465.34 338.34 458.51 337.25 451.71 335.84 445.12 334.09 438.6 332.05 432.29 329.67 426.09 327.01 420.05 324.11 414.18 320.92 408.46 317.41 403 313.66 397.63 309.68 392.55 305.41 387.64 300.97 383 296.29 378.55 291.38 374.36 286.23 370.39 280.93 366.68 275.39 363.29 269.69 360.12 263.85 357.24 257.79 354.69 251.59 352.39 245.25 350.46 238.8 348.8 232.17 347.5 225.42 346.54 218.6 345.9 211.62 345.64 204.59 345.76 197.52 346.19 190.57 346.98 183.69 348.12 176.9 349.64 170.24 351.43 163.68 353.54 157.27 355.96 151 358.7 144.86 361.68 138.88 365.03 133.06 368.55 127.41 372.4 121.97 376.47 116.72 380.79 111.63 385.31 106.77 390.12 102.1 395.13 97.73 400.33 93.53 405.76 89.59 411.37 85.94 417.17 82.52 423.1 79.35 429.24 76.49 435.55 73.91 441.96 71.62 448.56 69.68 455.26 68.03 462.06 66.68 469.06 65.67 476.06 65.02 483.24 64.71 490.37 64.77 497.44 65.2 504.39 65.91 511.26 67.02 518 68.45 524.66 70.18 531.11 72.24 537.45 74.57 543.65 77.23 549.7 80.2 555.57 83.39 561.25 86.88 566.77 90.61 572.07 94.61 577.18 98.83 582.06 103.31 586.75 108.03 591.2 112.94 595.41 118.04 599.36 123.38 603.05 128.86 606.48 134.57 609.63 140.46 612.49 146.45 615.09 152.68 617.34 158.99 619.29 165.51 620.91 172.12 622.27 178.85 623.23 185.67 623.83 192.62 624.11 199.72 624.02 206.75 623.56 213.73 622.72 220.59 621.59 227.38 620.13 234.03 618.34 240.59 616.17 247.01 613.75 253.29 611.08 259.41 608.02 265.41 604.75 271.21 601.19 276.84 597.38 282.3 593.28 287.59 588.98 292.64 584.4 297.51 579.62 302.14 574.62 306.58 569.4 310.71 564.01 314.67 558.38 318.37 552.58 321.79 546.61 324.94 540.47 327.79 534.23 330.36 527.77 332.62 521.19 334.63 514.49 336.28 507.64 337.6 500.72 338.59 493.65 339.26 486.54 339.56"/><polygon class="cls-5" points="488.63 288.07 488.12 289.54 487.93 295.99 486.6 298.96 481.72 300.71 479.62 304.83 479.72 310.82 483.53 313.72 489.27 317.18 495.57 323.36 499.68 328.18 502.94 328.36 503.26 331.91 501.67 335.47 502.26 337.92 502.61 338.19 516.73 335.4 530.34 331.31 543.45 325.82 558.91 317.29 572.62 307.26 572.85 303.21 575.19 297.17 579.47 291.13 581.87 287.55 578.33 284.87 576.43 284.61 571.85 286.61 562.91 288.64 555.59 289.61 549.57 282.64 540.06 282.81 533.02 281.6 524.84 278.17 518.35 279.66 509.43 279.81 505.93 281.48 499.38 279.19 495.06 281.17 491.33 284.21 489.24 286.36 485.89 285.66 480.73 285.21 476.35 282.03 475.53 279.84 476.82 276.03 477.07 272.78 474.06 270.62 469.46 269.36 464.31 269.43 463.71 267 465.31 263.96 466.08 258.78 463.05 256.95 459 258.36 457.41 261.1 454.46 261.98 450.62 260.68 445.41 256.45 444.84 251.01 445.56 246.1 449.85 240.31 455.53 239.12 459.07 239.59 461.5 240.94 463.94 240.61 466.67 239.19 471.26 239.63 475.61 241.48 478.67 246.04 481.13 249.53 483.84 248.68 482.99 244.34 481.29 240.82 482.07 236.45 484.18 232.87 489.53 228.99 492.75 226.21 492.98 221.06 495.1 215.27 497.74 211.39 499.64 210.84 500.71 208.11 503.35 203.98 505.77 202.84 508.22 204.15 510.1 201.97 514.15 199.71 517.09 198.02 515.97 195.31 511.91 195.94 510.01 195.39 509.73 192.45 507 191.67 504.32 193.87 501.35 195.31 501.05 193.96 504 190.9 508.83 188.37 511.84 188.05 515.9 186.32 517.2 183.32 515.79 179.51 511.69 174.69 504.28 169.1 499.93 168.63 497.49 168.15 495.01 164.94 487.69 161.8 484.97 162.65 485 167.29 485.34 173.28 487.28 175.41 485.69 177.87 484.97 183.07 484.19 187.72 481.17 185.03 478.99 181.53 478.66 177.46 475.11 175.89 469.66 174.62 467.71 171.68 468.19 165.39 471.41 160.43 476.5 155.46 481.07 152.09 483.17 149.36 480.72 146.68 477.48 147.84 473.94 146.78 473.35 143.23 473.03 139.98 470.6 140.03 469.86 144.69 467.68 146.62 465.82 145.29 465.72 139.58 464.32 135.83 461.31 134.23 458.85 130.45 454.79 130.8 452.37 133.04 455.37 135.67 455.98 138.93 459.53 141.59 459.03 145.15 448.05 136.64 442.33 131.57 439.3 127.25 439.27 123.43 438.1 118.32 435.62 117.24 431.04 117.32 429.13 118.44 426.69 117.95 424 118.24 422.96 120.99 421.88 122.92 416.7 121.94 413.49 124.14 411.65 128.01 410.6 131.28 407.61 130.8 404.59 128.4 405.72 131.93 410.37 134.02 415.53 135.85 419.9 138.22 421.58 142.79 421.91 147.96 420.12 155.61 417.76 163.54 417.29 169.82 417.35 173.38 418.21 177.16 415 181.02 412.07 186 409.18 192.56 407.91 200.48 406.96 211.65 408.1 215.71 410.36 223.29 412.05 229.24 414.58 236.3 417.85 239.79 420.6 240.81 417.84 237.59 416.42 233.53 415.58 228.91 414.72 224.86 416.86 224.28 417.99 227.52 419.96 235.39 424.15 243.76 425.3 248.35 424.22 251.37 426.75 255.14 431.64 257.49 439.04 264.18 443.63 266 450.74 268.3 458.88 271.71 463 274.39 466.82 277.82 469.89 284.57 475.88 286.92 479.72 288.22 484.04 287.62 488.63 288.07"/><polygon class="cls-5" points="473.36 257.32 476.61 255.88 481.77 257.14 487.75 258.96 492.34 259.41 496.45 261.27 495.39 263.45 490.51 264.1 486.44 261.15 481.51 258.77 473.36 257.32"/><polygon class="cls-5" points="497.82 264.48 497.61 266.67 501.13 268 504.39 268.46 510.06 267.56 506.23 265.41 506.5 264.08 504.3 263.28 497.82 264.48"/><polygon class="cls-6" points="518.02 183.02 519.93 184.91 523.5 187.83 527.31 191.01 528.43 193.44 522.44 193.57 518.63 189.3 517.24 186.29 518.02 183.02"/><polygon class="cls-5" points="492.53 160.91 489.01 159.86 484.66 159.12 488.96 155.79 489.17 151.14 487.22 148.2 482.05 146.65 478.51 145.08 474.94 140.49 477.88 137.7 481.99 138.76 487.15 141.41 492.06 144.01 494.01 148.34 495.65 149.65 499.73 151.5 502.24 155.83 500.08 158.29 499.34 161.87 496.1 162.45 492.53 160.91"/><polygon class="cls-5" points="512.28 156.73 517.19 159.9 519.38 160.98 524.25 159.51 530.15 157.49 524.44 155.43 522.52 152.44 523 147.26 523.43 138.3 526.65 135.24 526.6 130.36 521.4 125.27 515.93 121.29 509.37 119.21 503.94 115.77 497.68 115.62 492.83 117.32 490.41 120.37 487.69 120.69 487.44 118.52 483.63 118.56 479.06 120.56 479.89 123.56 477.79 128.76 480.01 131.99 484.33 134.62 486.19 128.06 488.31 125.58 489.75 130.17 493.55 133.92 497.09 135.5 502.59 139.73 507.26 144.02 508.42 152.18 511.7 153.99 512.28 156.73"/><polygon class="cls-5" points="530.71 134.36 531.33 138.96 532.95 141.41 535.94 142.7 539.71 138.3 541.24 132.8 537.97 130.42 534.45 131.57 532.86 133.74 530.71 134.36"/><polygon class="cls-5" points="589.14 111.84 591.08 116.45 590.86 121.04 591.97 124.84 595.81 127.24 595.54 130.25 592.33 131.35 590.16 131.16 587.22 132.56 593.21 135.19 592.42 137.65 586.99 137.71 587.57 140.74 588.96 144.48 589.04 148.86 591.52 152.88 593.46 156.68 596.47 159.37 595.13 161.25 594.62 163.18 593.58 167.32 590.36 169.81 585.17 166.64 584.88 163.62 581.83 160.97 581.81 157.16 584.46 154.37 584.18 150.33 579.24 149.04 576.81 149.08 575.16 146.39 575.64 140.1 572.05 133.37 568.49 130.97 567.33 126.68 566.43 120.69 562.03 114.2 560.89 109.33 557.34 108.05 553.57 105.92 551.35 104.6 550.01 106.01 551.95 108.14 548.73 110.63 551.7 111.39 555.02 113.81 558.57 117.29 562.93 119.67 558.61 121.64 557.29 124.4 553.47 123.63 548.87 121.28 545.23 115.32 542.49 113.2 536.25 110.06 531.6 107.68 528.33 103.1 532.06 100.88 538.83 99.67 538 96.68 535.27 95.9 534.49 97.54 529.83 97.65 530.63 94.62 527.65 93.34 525.72 90.64 520.25 87.17 512.04 81.59 510.41 82.48 508.87 84.39 505.34 85.55 503.12 84.5 499.05 83.77 493.66 84.15 490.96 85.81 485.29 86.72 480.13 85.98 476.58 84.68 476.03 81.97 470.58 81.8 468.44 83.77 462.77 84.14 457.61 85.32 457.65 88.28 454.96 89.94 449.27 90.61 447.14 92.29 447.97 94.99 445.54 96.42 438.77 97.34 438.27 99.79 438.05 102.82 435.88 104.18 432.14 108.08 429.44 110.83 425.98 113.64 421.64 114.51 422.72 112.87 424.84 109.58 424.25 107.66 420.77 107.74 418.84 105.03 417.16 102.31 419.83 99.31 422.76 96.81 425.2 96.48 427.38 92.36 426.75 87.76 430 86.32 434.55 84.08 434.78 78.93 432.3 76.74 429.86 75.97 442.48 71.44 453.09 68.49 463.39 66.48 476.3 65.01 487.77 64.73 501.2 65.61 517.89 68.46 534.19 73.37 545.3 78.16 556.77 84.22 566.47 90.55 575.57 97.38 583.56 104.89 588.92 110.55 589.14 111.84"/><polygon class="cls-5" points="556.68 128.47 554.25 129.6 555.33 132 557.85 135.78 558.68 138.48 559.82 142.54 563.67 145.75 566.34 145.97 565.25 143.56 561.93 140.62 561.65 138.95 564.93 140.3 568.5 142.12 571.75 143.17 571.73 140.44 571.85 140.16 571.96 139.9 572.03 139.59 572.04 139.31 572.05 138.74 571.99 138.18 571.87 137.65 571.77 137.25 571.69 137.01 571.66 136.88 569.48 135.58 562.68 132.72 559.67 131.37 556.68 128.47"/><path class="cls-7" d="M521.52,36.18a3.4,3.4,0,0,0-1.16-.74c-.74-.33-6.09-2.42-8-3.12-1.25-.46-2.5-.91-3.77-1.33-3.88-1.28-7.73-4.65-11.46-6.33a44.3,44.3,0,0,0-17.78-3.48,105.32,105.32,0,0,0-11.37.57c-1.89.19-3.78.41-5.67.64l-2.82.36c-.56.08-2.08.21-.86.77.75.35-5.64,6.58-6.13,7.23s-.81,5.73-1,9.84a9.25,9.25,0,0,0,1.49,5l1.54,0a7.06,7.06,0,0,1,3-6.83,7.34,7.34,0,0,1,7.64-.06,7.22,7.22,0,0,1,3.08,6.91c11.49,0,22.54,0,34,0a7.07,7.07,0,0,1,3.08-6.84,7.24,7.24,0,0,1,7.56,0,7.08,7.08,0,0,1,3,6.83h6c.29-.26.24-1,.25-1.37.07-1.55.16-2.83.11-4.37C522.35,38.76,522.37,37.1,521.52,36.18Z"/><path class="cls-8" d="M501.41,33.18a4.73,4.73,0,0,0-1.31-1.13c-.9-.67-1.83-1.29-2.77-1.9A26.26,26.26,0,0,0,489,26.41a55.59,55.59,0,0,0-9.88-1,58,58,0,0,0-7.22.26,25.35,25.35,0,0,0-6.58,1.18,10.24,10.24,0,0,0-4.29,3c-.84,1-1.63,2.56-.22,3.45C460.77,33.22,501.44,33.22,501.41,33.18Z"/><path class="cls-9" d="M509.29,50.21a5.39,5.39,0,1,1,5.39-5.39,5.38,5.38,0,0,1-5.39,5.39Z"/><path class="cls-9" d="M461.53,50.18a5.39,5.39,0,1,0-5.38-5.38,5.38,5.38,0,0,0,5.38,5.38Z"/><path class="cls-10" d="M482.28,40.8a64.36,64.36,0,0,0-.65-10.19c-.29-1.82-.4-2.69-.69-4.52"/><line class="cls-11" x1="444.84" y1="33.22" x2="442.17" y2="33.22"/><line class="cls-11" x1="444.84" y1="39.46" x2="440.83" y2="39.46"/><path class="cls-7" d="M649.13,234.86a3.45,3.45,0,0,0,.74-1.16c.33-.75,2.42-6.1,3.12-8,.46-1.25.91-2.5,1.33-3.77,1.28-3.88,4.65-7.73,6.33-11.46a44.13,44.13,0,0,0,3.48-17.78,105.32,105.32,0,0,0-.57-11.37c-.19-1.89-.41-3.78-.64-5.67l-.36-2.82c-.08-.56-.21-2.08-.77-.86-.35.75-6.57-5.64-7.22-6.12s-5.74-.82-9.85-1a9.25,9.25,0,0,0-5,1.49l0,1.54a7.08,7.08,0,0,1,6.84,3,7.36,7.36,0,0,1,0,7.64,7.21,7.21,0,0,1-6.9,3.08v34a7.08,7.08,0,0,1,6.83,3.08,7.22,7.22,0,0,1,0,7.56,7.08,7.08,0,0,1-6.83,3.05c0,2,0,4,0,6,.26.29,1,.24,1.38.25,1.54.08,2.82.16,4.36.11C646.55,235.68,648.21,235.7,649.13,234.86Z"/><path class="cls-8" d="M652.14,214.74a4.87,4.87,0,0,0,1.12-1.31c.67-.9,1.29-1.83,1.9-2.77a26,26,0,0,0,3.74-8.37,55.59,55.59,0,0,0,1-9.88,58,58,0,0,0-.26-7.22,24.93,24.93,0,0,0-1.18-6.58,10.07,10.07,0,0,0-3-4.29c-1-.84-2.56-1.63-3.45-.22C652.09,174.1,652.09,214.77,652.14,214.74Z"/><path class="cls-9" d="M635.1,222.62a5.39,5.39,0,1,1,5.39,5.39,5.38,5.38,0,0,1-5.39-5.39Z"/><path class="cls-9" d="M635.13,174.86a5.39,5.39,0,1,0,5.38-5.38,5.38,5.38,0,0,0-5.38,5.38Z"/><path class="cls-10" d="M644.51,195.61A64.29,64.29,0,0,0,654.7,195c1.83-.29,2.69-.4,4.52-.69"/><line class="cls-11" x1="652.09" y1="158.17" x2="652.09" y2="155.5"/><line class="cls-11" x1="645.85" y1="158.17" x2="645.85" y2="154.16"/><path class="cls-7" d="M448.55,368a3.35,3.35,0,0,0,1.16.74c.74.34,6.09,2.42,8,3.12,1.25.46,2.51.91,3.77,1.33,3.88,1.28,7.74,4.65,11.46,6.33A44.13,44.13,0,0,0,490.74,383a105.32,105.32,0,0,0,11.37-.57q2.83-.28,5.67-.64l2.82-.36c.56-.07,2.08-.2.86-.77-.74-.35,5.64-6.57,6.13-7.22s.82-5.74.95-9.85a9.2,9.2,0,0,0-1.48-5l-1.55,0a7.08,7.08,0,0,1-3,6.84,7.38,7.38,0,0,1-7.64.06,7.23,7.23,0,0,1-3.08-6.91h-34a7,7,0,0,1-3.08,6.83,7.22,7.22,0,0,1-7.56,0,7.08,7.08,0,0,1-3-6.82h-6c-.29.26-.24,1-.25,1.38-.07,1.54-.16,2.82-.11,4.37C447.73,365.37,447.7,367,448.55,368Z"/><path class="cls-8" d="M468.66,371a4.87,4.87,0,0,0,1.31,1.12c.9.67,1.83,1.3,2.77,1.9a26,26,0,0,0,8.37,3.74,54.69,54.69,0,0,0,9.89,1,57.93,57.93,0,0,0,7.21-.26,25.33,25.33,0,0,0,6.58-1.17,10.18,10.18,0,0,0,4.29-3c.85-1,1.63-2.56.22-3.45C509.3,370.91,468.63,370.91,468.66,371Z"/><path class="cls-9" d="M460.78,353.93a5.38,5.38,0,1,1-5.38,5.38,5.39,5.39,0,0,1,5.38-5.38Z"/><path class="cls-9" d="M508.54,354a5.39,5.39,0,1,0,5.38,5.39,5.39,5.39,0,0,0-5.38-5.39Z"/><path class="cls-10" d="M487.79,363.33a64.29,64.29,0,0,0,.65,10.19c.29,1.83.4,2.69.69,4.52"/><line class="cls-11" x1="525.23" y1="370.91" x2="527.9" y2="370.91"/><line class="cls-11" x1="525.23" y1="364.67" x2="529.24" y2="364.67"/><path class="cls-7" d="M319.25,164.52a3.47,3.47,0,0,0-.75,1.16c-.33.75-2.42,6.1-3.12,8-.45,1.25-.91,2.5-1.32,3.77-1.29,3.88-4.66,7.73-6.34,11.46a44.3,44.3,0,0,0-3.48,17.78,105.32,105.32,0,0,0,.57,11.37c.19,1.89.41,3.78.64,5.67.12.94.24,1.88.37,2.82.07.56.2,2.08.76.86.35-.75,6.58,5.64,7.23,6.12s5.73.82,9.84,1a9.22,9.22,0,0,0,5-1.49l0-1.54a7.06,7.06,0,0,1-6.83-3,7.34,7.34,0,0,1-.06-7.64,7.23,7.23,0,0,1,6.91-3.08v-34a7.08,7.08,0,0,1-6.84-3.08,7.24,7.24,0,0,1,0-7.56,7.1,7.1,0,0,1,6.83-3v-6c-.27-.29-1-.24-1.38-.26-1.55-.07-2.83-.16-4.37-.1C321.82,163.7,320.17,163.68,319.25,164.52Z"/><path class="cls-8" d="M316.24,184.64a4.9,4.9,0,0,0-1.13,1.31c-.67.9-1.29,1.83-1.89,2.77a25.82,25.82,0,0,0-3.74,8.37,54.59,54.59,0,0,0-1.05,9.88,59.77,59.77,0,0,0,.26,7.21,25.34,25.34,0,0,0,1.18,6.59,10.24,10.24,0,0,0,3,4.29c1,.84,2.56,1.63,3.45.22C316.28,225.28,316.28,184.61,316.24,184.64Z"/><path class="cls-9" d="M333.27,176.76a5.39,5.39,0,1,1-5.39-5.39,5.38,5.38,0,0,1,5.39,5.39Z"/><path class="cls-9" d="M333.24,224.52a5.39,5.39,0,1,0-5.38,5.38,5.38,5.38,0,0,0,5.38-5.38Z"/><path class="cls-10" d="M323.86,203.77a64.16,64.16,0,0,0-10.18.65c-1.83.29-2.7.4-4.53.69"/><line class="cls-11" x1="316.28" y1="241.21" x2="316.28" y2="243.88"/><line class="cls-11" x1="322.52" y1="241.21" x2="322.52" y2="245.22"/><path class="cls-12" d="M19.88,78a10,10,0,0,1,1.85-.51,3.82,3.82,0,0,1,2.72,1.14.25.25,0,0,0,.38-.1,5.75,5.75,0,0,1,1-1.68,4.5,4.5,0,0,1,1.9-.89"/><path class="cls-12" d="M23,77.65a5.87,5.87,0,0,1,1.47,1.13.31.31,0,0,0,.47-.11A5.91,5.91,0,0,1,25.62,77"/><path class="cls-12" d="M40.21,88.1a6.6,6.6,0,0,1,1.72,0c1,.23,1.45,1.11,1.94,2a.2.2,0,0,0,.35,0,6.66,6.66,0,0,1,1.33-1.54,3.39,3.39,0,0,1,1.88-.39"/><path class="cls-12" d="M42.92,88.69a6.05,6.05,0,0,1,.88,1.67.25.25,0,0,0,.43,0,7.2,7.2,0,0,1,1.11-1.57"/><circle class="cls-5" cx="807.75" cy="89.6" r="22.89"/><path class="cls-13" d="M63.28,151.61a8,8,0,0,1,13.24-8.07,16,16,0,0,1,18.16-8.39c7,1.92,12.2,9.31,11.47,16.52Z"/><path class="cls-13" d="M163.71,91.53h65.75a8.55,8.55,0,0,0-9.13-7.73c.34-3-2.12-6.11-4.9-7.07A9.71,9.71,0,0,0,207,77.84c.09,0-.35-3.25-.38-3.51C205.79,68,201.44,62.47,194.78,62a13.28,13.28,0,0,0-4.69.51,15.72,15.72,0,0,0-4.42,2,14.28,14.28,0,0,0-5.89,8.39A13.07,13.07,0,0,0,169,75.21c-4.36,3.19-6.24,9.32-5.58,14.54Z"/><path class="cls-13" d="M899,139.63a22.63,22.63,0,0,0-8.27,3c.1-.05-2.15-3.18-2.38-3.47a19.42,19.42,0,0,0-3-3c-5-3.87-11.41-3.22-16.72-.56-.13.07-1.94,1-2,1s-1.06-2.05-1.24-2.35a22.18,22.18,0,0,0-3.66-4.84,13.81,13.81,0,0,0-11-3.56,14.05,14.05,0,0,0-10,6.17,18.19,18.19,0,0,0-1.83,3.53c-1.44,3.71-1.81,7.74-2.11,11.7H913l0,.89c-.87-4.38-5-7.63-9.43-8.36A15.09,15.09,0,0,0,899,139.63Z"/><path class="cls-13" d="M154.67,316.76a23.24,23.24,0,0,1,8.47,3,41.12,41.12,0,0,1,2.44-3.56,20,20,0,0,1,3.12-3.11c5.07-4,11.69-3.29,17.13-.57l2,1s1.1-2.11,1.28-2.41a22.18,22.18,0,0,1,3.75-5,14.13,14.13,0,0,1,11.31-3.64,14.42,14.42,0,0,1,10.23,6.32,18.17,18.17,0,0,1,1.87,3.61c1.48,3.8,1.86,7.92,2.16,12h-78l0,.92c.9-4.49,5.15-7.82,9.67-8.57A15.83,15.83,0,0,1,154.67,316.76Z"/><path class="cls-13" d="M780,295h62.8a8.15,8.15,0,0,0-8.72-7.38c.33-2.84-2-5.84-4.68-6.75a9.22,9.22,0,0,0-8,1c.07,0-.34-3.11-.37-3.35-.8-6-5-11.32-11.32-11.82a12.56,12.56,0,0,0-4.48.48,14.75,14.75,0,0,0-4.22,2,13.53,13.53,0,0,0-5.62,8,12.49,12.49,0,0,0-10.27,2.23c-4.17,3-6,8.9-5.33,13.88Z"/><path class="cls-13" d="M688.65,94.19A8.71,8.71,0,0,1,703,85.42a17.42,17.42,0,0,1,19.75-9.12c7.59,2.1,13.26,10.13,12.46,18Z"/><polyline class="cls-3" points="486.67 339.61 479.48 339.56 472.45 339.16 465.48 338.39 458.65 337.31 451.85 335.89 445.25 334.14 438.73 332.1 432.42 329.72 426.22 327.07 420.18 324.16 414.32 320.97 408.6 317.46 403.14 313.71 397.77 309.73 392.69 305.47 387.78 301.02 383.13 296.34 378.68 291.43 374.5 286.28 370.53 280.98 366.82 275.44 363.43 269.75 360.25 263.9 357.38 257.85 354.82 251.64 352.53 245.31 350.59 238.85 348.94 232.22 347.64 225.47 346.68 218.65 346.04 211.68 345.78 204.65 345.89 197.57 346.32 190.63 347.12 183.74 348.26 176.96 349.77 170.29 351.57 163.74 353.68 157.32 356.1 151.05 358.83 144.91 361.82 138.93 365.16 133.11 368.68 127.46 372.53 122.02 376.61 116.77 380.93 111.68 385.44 106.83 390.25 102.15 395.27 97.78 400.46 93.58 405.9 89.65 411.5 85.99 417.31 82.57 423.23 79.4 429.37 76.54 435.69 73.96 442.1 71.67 448.7 69.73 455.4 68.08 462.2 66.73 469.19 65.73 476.19 65.07 483.38 64.76 490.5 64.83 497.57 65.25 504.53 65.96 511.4 67.07 518.13 68.5 524.79 70.23 531.25 72.29 537.58 74.63 543.78 77.28 549.84 80.25 555.7 83.44 561.38 86.93 566.91 90.66 572.21 94.66 577.32 98.88 582.2 103.37 586.89 108.08 591.34 112.99 595.55 118.09 599.49 123.44 603.19 128.91 606.62 134.63 609.77 140.51 612.63 146.5 615.22 152.73 617.48 159.04 619.43 165.56 621.04 172.17 622.41 178.9 623.37 185.72 623.97 192.67 624.24 199.77 624.15 206.8 623.7 213.79 622.86 220.65 621.72 227.44 620.27 234.08 618.48 240.64 616.3 247.07 613.88 253.34 611.21 259.46 608.16 265.46 604.88 271.26 601.32 276.89 597.51 282.36 593.41 287.64 589.12 292.69 584.53 297.56 579.75 302.2 574.75 306.63 569.54 310.76 564.15 314.73 558.52 318.43 552.72 321.84 546.75 324.99 540.61 327.85 534.36 330.41 527.91 332.68 521.32 334.69 514.62 336.33 507.78 337.66 500.85 338.65 493.79 339.32 486.67 339.61"/></svg>