<?xml version="1.0" encoding="utf-8"?>
<!-- Generator: Adobe Illustrator 23.0.1, SVG Export Plug-In . SVG Version: 6.00 Build 0)  -->
<svg version="1.1" id="Layer_1" xmlns="http://www.w3.org/2000/svg" xmlns:xlink="http://www.w3.org/1999/xlink" x="0px" y="0px"
	 viewBox="0 0 1412 450" style="enable-background:new 0 0 1412 450;" xml:space="preserve">
<style type="text/css">
	.st0{fill:#757B7E;}
	.st1{fill:#83C456;}
</style>
<g>
	<g>
		<path class="st0" d="M752.5,231.1c-10.2,6.7-24.3,10-41.7,10h-50.1c0-4,3.4-7.6,7.4-7.6h42.7c23.9,0,52.2-6.5,52.2-37.9
			c0-24.3-17.6-36.7-52.2-36.7h-58.2c-0.7,0-1.2,0.7-1.2,1.2v142.4c0,3.8-3.6,6.9-7.6,7.2V158.4c0-3.8,3.3-7.1,7.6-7.1h59.4
			c49.4,0,59.9,24.3,59.9,44.3C770.6,211.3,764.4,223.3,752.5,231.1z"/>
		<path class="st0" d="M869.1,310.5c-44.6,0-80.8-36.5-80.8-81.3c0-44.8,36.3-81.3,80.8-81.3c44.6,0,80.8,36.5,80.8,81.3
			C950,274,913.7,310.5,869.1,310.5z M869.1,155.5c-40.3,0-73.2,33.1-73.2,73.7c0,40.8,32.9,73.7,73.2,73.7
			c40.5,0,73.2-32.9,73.2-73.7C942.3,188.7,909.7,155.5,869.1,155.5z"/>
		<path class="st0" d="M985.2,309.6c-4.1,0-7.4-3.6-7.4-7.4V150.3c4.3,0,7.6,3.3,7.6,7.4v151.9H985.2z"/>
		<path class="st0" d="M1151,309.3c-2.1,0-4-1-5.5-2.6l-114-146.9v142.1c0,4.3-3.6,7.4-7.6,7.6V157.9c0-4.1,3.1-7.6,6.9-7.6
			c1.9,0,3.6,0.9,4.8,2.4l114.7,147.8V157.7c0-4.1,3.6-7.4,7.6-7.4v151.7C1157.9,306,1154.8,309.3,1151,309.3z"/>
		<path class="st0" d="M1307.4,159.1h-55.6v150.2c-4.3,0-7.6-3.1-7.6-7.2V159.1h-55.8c-4.3,0-7.6-3.6-7.6-7.6H1315
			C1315,155.5,1311.7,159.1,1307.4,159.1z"/>
	</g>
	<g>
		<path class="st0" d="M571.4,225.4V85.4c-5-7.9-10.5-15.6-16.3-22.9v163c0,34.7-28.2,62.9-62.9,62.9c-33.7,0-61.2-26.7-62.7-60
			c0-1.3,0-2.8,0-2.8c0-43.7-35.5-79.2-79.2-79.2c-43.7,0-79.2,35.5-79.2,79.2c0,0,0,1.5,0,2.8c-1.5,33.3-29,60-62.7,60
			c-34.7,0-62.9-28.2-62.9-62.9h-16.3c0,43.7,35.5,79.2,79.2,79.2c43.7,0,79.2-35.5,79.2-79.2c0,0,0-1.5,0-2.8
			c1.5-33.3,29-60,62.7-60c33.7,0,61.2,26.7,62.7,60.1c0,1.3,0,2.8,0,2.8c0,43.7,35.5,79.2,79.2,79.2
			C535.9,304.6,571.4,269.1,571.4,225.4z"/>
		<path class="st1" d="M555.1,177.3c-14.5-18.9-37.3-31.1-62.9-31.1c-43.7,0-79.2,35.5-79.2,79.2c0,0,0,1.5,0,2.8
			c-1.5,33.3-29,60-62.7,60c-33.7,0-61.2-26.7-62.7-60c0-1.3,0-2.8,0-2.8c0-43.7-35.5-79.2-79.2-79.2c-43.7,0-79.2,35.5-79.2,79.2
			v140.1c5,7.9,10.5,15.6,16.3,22.9v-163c0-34.7,28.2-62.9,62.9-62.9c33.7,0,61.2,26.7,62.7,60c0,1.3,0,2.8,0,2.8
			c0,43.7,35.5,79.2,79.2,79.2c43.7,0,79.2-35.5,79.2-79.2c0,0,0-1.5,0-2.8c1.5-33.3,29-60,62.7-60c34.6,0,62.7,28.1,62.9,62.6
			V177.3z"/>
	</g>
</g>
</svg>
